<svg xmlns="http://www.w3.org/2000/svg" xmlns:svg="http://www.w3.org/2000/svg" xmlns:xlink="http://www.w3.org/1999/xlink" id="svg9904" width="48" height="48" version="1.1" viewBox="0 0 48 48"><metadata id="metadata9910"/><defs id="defs9908"><linearGradient id="linearGradient836"><stop style="stop-color:#79b14b;stop-opacity:1" id="stop832" offset="0"/><stop style="stop-color:#2a9449;stop-opacity:1" id="stop834" offset="1"/></linearGradient><linearGradient id="linearGradient10468"><stop style="stop-color:#d6f3b6;stop-opacity:1" id="stop10464" offset="0"/><stop id="stop10472" offset=".482" style="stop-color:#61a342;stop-opacity:1"/><stop style="stop-color:#c2e9a3;stop-opacity:1" id="stop10466" offset="1"/></linearGradient><linearGradient id="linearGradient10470" x1="4" x2="4" y1="11" y2="4" gradientTransform="matrix(2.7332009,0,0,2.7874538,2.1344017,2.7816281)" gradientUnits="userSpaceOnUse" xlink:href="#linearGradient10468"/><filter style="color-interpolation-filters:sRGB" id="filter10710" width="2.127" height="2.322" x="-.564" y="-.661"><feGaussianBlur id="feGaussianBlur10712" stdDeviation=".705"/></filter><linearGradient id="linearGradient838" x1="3" x2="27" y1="23.688" y2="24" gradientUnits="userSpaceOnUse" xlink:href="#linearGradient836"/><filter style="color-interpolation-filters:sRGB" id="filter1941" width="1.103" height="1.151" x="-.051" y="-.076"><feGaussianBlur id="feGaussianBlur1943" stdDeviation=".878"/></filter></defs><path style="opacity:.51000001;fill:gray;fill-opacity:1;stroke:none;stroke-width:.96195245;stroke-linecap:round;stroke-linejoin:round;stroke-miterlimit:4;stroke-dasharray:none;stroke-opacity:1;filter:url(#filter1941)" id="path10459-7" d="m -37.166988,22.750262 v 8.362364 h -6.950445 a 10.930652,11.147621 0 0 0 -9.448761,-5.57491 10.930652,11.147621 0 0 0 -10.932804,11.149817 10.930652,11.147621 0 0 0 10.932804,11.149813 10.930652,11.147621 0 0 0 9.454099,-5.574907 h 6.945107 v 8.362363 l 13.666005,-13.937269 z" transform="matrix(1.033989,0,0,1.0493305,69.611421,-12.347266)"/><path style="opacity:1;fill:url(#linearGradient10470);fill-opacity:1;stroke:url(#linearGradient838);stroke-width:1.00199997;stroke-linecap:round;stroke-linejoin:round;stroke-miterlimit:4;stroke-dasharray:none;stroke-opacity:1" id="path10459" d="M 30.833012,9.7502621 V 18.112626 H 23.882567 A 10.930652,11.147621 0 0 0 14.433806,12.537716 10.930652,11.147621 0 0 0 3.5010022,23.687533 10.930652,11.147621 0 0 0 14.433806,34.837346 10.930652,11.147621 0 0 0 23.887905,29.262439 h 6.945107 v 8.362363 L 44.499017,23.687533 Z"/><ellipse style="opacity:1;fill:#fff;fill-opacity:1;stroke:none;stroke-width:.46964359;stroke-linecap:round;stroke-linejoin:round;stroke-miterlimit:4;stroke-dasharray:none;stroke-opacity:1;filter:url(#filter10710)" id="path10474" cx="11" cy="20" rx="1.5" ry="1.28" transform="matrix(2.0846209,0,0,2.1835921,-10.303899,-22.157244)"/></svg>